<?xml version="1.0" standalone="no"?>
<!DOCTYPE svg PUBLIC "-//W3C//DTD SVG 20010904//EN"
 "http://www.w3.org/TR/2001/REC-SVG-20010904/DTD/svg10.dtd">
<svg version="1.0" xmlns="http://www.w3.org/2000/svg"
 width="260.000000pt" height="260.000000pt" viewBox="0 0 260.000000 260.000000"
 preserveAspectRatio="xMidYMid meet">
<metadata>
Created by potrace 1.11, written by Peter Selinger 2001-2013
</metadata>
<g transform="translate(0.000000,260.000000) scale(0.100000,-0.100000)"
fill="#000000" stroke="none">
<path d="M1120 2088 c-45 -23 -56 -26 -58 -13 -2 8 -8 15 -14 15 -6 0 -8 -8
-6 -17 4 -14 -2 -19 -25 -20 -17 -1 -34 -8 -38 -14 -5 -8 -8 -8 -11 1 -2 8 -8
7 -18 -6 -13 -16 -13 -17 0 -9 11 6 10 3 -2 -12 -10 -11 -18 -25 -18 -31 0 -7
-6 -12 -14 -12 -9 0 -12 -7 -9 -20 3 -11 8 -18 12 -16 3 2 7 -18 8 -45 0 -27
-3 -47 -7 -44 -4 3 -10 -2 -14 -10 -3 -8 -12 -15 -20 -15 -7 0 -16 -7 -20 -15
-7 -18 3 -47 14 -40 12 7 6 -49 -7 -58 -6 -4 -10 -18 -8 -32 1 -14 -1 -25 -5
-25 -5 0 -7 -16 -5 -35 2 -19 -1 -35 -6 -35 -5 0 -9 -10 -9 -23 0 -13 -5 -28
-11 -34 -7 -7 -3 -16 14 -29 13 -11 22 -25 19 -32 -2 -6 1 -12 8 -12 7 0 9
-14 6 -40 -3 -26 0 -40 7 -40 7 0 4 -5 -7 -11 -14 -9 -15 -13 -5 -19 15 -10
21 -40 8 -40 -6 0 -8 -4 -5 -9 4 -5 0 -12 -6 -15 -9 -4 -8 -5 2 -5 32 2 42 -2
37 -15 -3 -7 2 -24 10 -37 9 -12 11 -19 5 -15 -6 3 -13 2 -17 -4 -3 -5 -1 -10
5 -10 6 0 8 -5 4 -12 -5 -8 0 -9 14 -6 19 5 22 2 23 -30 1 -21 2 -46 3 -57 1
-11 6 -19 12 -18 16 3 13 -25 -4 -32 -8 -3 -11 -12 -8 -21 4 -10 1 -14 -6 -11
-7 2 -18 -3 -25 -12 -11 -14 -12 -14 -13 3 0 13 -4 16 -17 11 -10 -4 -27 -7
-38 -7 -11 1 -22 -2 -25 -6 -3 -4 -25 -16 -50 -27 -43 -19 -78 -51 -72 -68 1
-5 -2 -6 -7 -3 -5 4 -14 -2 -20 -11 -6 -10 -11 -14 -11 -10 0 4 -6 2 -14 -5
-8 -7 -12 -16 -9 -20 2 -5 -1 -8 -7 -8 -6 0 -8 -4 -5 -10 9 -14 -9 -12 -24 2
-10 11 -11 10 -6 -4 6 -14 2 -18 -15 -18 -11 0 -18 -4 -15 -10 3 -5 0 -10 -7
-10 -8 0 -22 -14 -32 -30 -9 -17 -21 -28 -26 -25 -5 3 -14 -4 -20 -16 -8 -15
-9 -19 -1 -15 6 4 11 3 11 -2 0 -13 -29 -24 -42 -15 -7 3 -8 1 -4 -5 4 -7 1
-12 -6 -12 -8 0 -6 -5 5 -11 12 -7 16 -17 12 -30 -5 -14 -2 -19 12 -19 16 -1
16 -2 2 -10 -11 -6 -15 -18 -11 -35 3 -19 0 -25 -12 -25 -10 0 -14 -5 -11 -10
3 -6 1 -10 -5 -10 -7 0 -10 -7 -6 -15 3 -8 0 -15 -6 -15 -6 0 -8 -3 -4 -7 4
-5 -9 -13 -31 -20 -37 -11 -37 -11 -8 -13 25 0 27 -2 12 -11 -9 -5 -17 -15
-17 -22 0 -7 4 -6 11 3 8 12 10 12 8 -5 -3 -45 2 -55 34 -64 27 -8 22 -9 -30
-6 -35 2 -63 -1 -63 -6 0 -5 37 -10 83 -10 45 -1 72 -4 59 -6 -12 -2 -22 -11
-22 -19 0 -8 -5 -14 -10 -14 -6 0 -9 6 -8 12 2 7 -8 14 -22 16 -23 2 -24 1 -7
-11 22 -19 22 -27 -3 -27 -11 0 -20 -4 -20 -9 0 -5 10 -7 22 -4 22 4 23 4 4
-11 -22 -18 -40 -21 -31 -6 3 6 2 10 -4 10 -6 0 -8 7 -4 16 4 12 0 15 -17 12
-13 -1 -25 -9 -28 -17 -3 -9 0 -11 8 -6 9 5 11 4 6 -4 -4 -6 -11 -9 -16 -6
-11 7 -31 -20 -28 -36 2 -8 16 -16 31 -19 34 -6 37 -23 5 -32 -15 -4 -17 -6
-6 -7 18 -1 33 -34 24 -50 -10 -16 26 -43 51 -38 l24 4 -22 -23 c-12 -13 -19
-29 -16 -36 6 -17 89 -22 98 -6 6 9 17 9 46 0 28 -9 243 -11 823 -9 l785 2 1
45 c2 65 9 75 55 78 23 1 48 9 56 17 8 8 21 15 29 15 8 0 14 5 14 10 0 6 -7
10 -15 10 -8 0 -15 5 -15 10 0 6 7 10 15 10 11 0 12 5 5 26 -13 32 -12 37 0
29 6 -3 10 1 10 9 0 9 -4 16 -8 16 -4 0 -7 27 -6 60 1 50 -2 60 -15 59 -29 -2
-33 1 -19 16 36 40 39 46 30 58 -5 7 -8 19 -7 29 2 12 -3 15 -22 12 -15 -3
-22 -1 -18 6 3 5 1 10 -5 10 -6 0 -8 5 -4 12 5 8 2 9 -10 5 -9 -4 -15 -3 -11
2 3 5 -8 21 -25 34 -16 14 -30 30 -30 35 0 6 -7 12 -15 16 -10 3 -15 19 -15
45 0 30 -5 43 -20 51 -11 6 -20 17 -20 26 0 8 -7 17 -15 20 -8 4 -12 10 -9 15
3 5 1 9 -5 9 -6 0 -13 11 -17 25 -3 13 -9 24 -13 23 -26 -3 -44 6 -59 30 -9
16 -22 27 -29 25 -6 -2 -14 0 -17 6 -4 6 -13 8 -21 4 -18 -6 -47 15 -39 28 3
5 -4 9 -15 9 -12 0 -20 3 -20 8 4 21 -3 32 -19 32 -10 0 -26 6 -37 14 -11 7
-23 14 -27 15 -5 1 -26 8 -48 17 -43 17 -59 46 -38 71 10 13 10 17 1 20 -18 6
-16 50 2 57 8 3 15 15 15 26 0 11 6 23 14 26 8 3 13 13 11 22 -1 9 2 23 8 30
5 6 6 12 1 12 -4 0 1 7 12 15 11 8 14 15 7 15 -7 0 -13 7 -13 16 0 14 3 14 16
3 13 -10 17 -10 24 1 5 8 6 18 3 23 -3 5 -9 3 -14 -4 -7 -11 -9 -11 -9 -1 0 7
-4 11 -9 8 -5 -3 -11 8 -13 24 -3 17 -2 30 1 30 3 0 7 26 7 58 1 31 2 74 3 94
1 26 7 41 21 48 22 12 27 32 8 29 -38 -5 -44 1 -40 41 4 43 12 49 32 25 7 -9
15 -13 18 -11 5 6 -18 30 -38 39 -8 4 -3 6 11 4 26 -4 26 -3 15 32 -5 20 -14
39 -19 42 -5 4 -7 11 -4 16 3 5 0 10 -8 10 -17 0 -20 -13 -5 -22 8 -5 7 -11 0
-20 -9 -11 -16 -12 -31 -2 -21 13 -27 32 -6 22 6 -4 4 0 -5 7 -14 12 -15 18
-4 39 14 28 5 75 -14 71 -8 -2 -10 3 -6 13 3 9 2 13 -4 10 -6 -3 -10 0 -10 7
0 10 -2 10 -9 -1 -7 -11 -13 -9 -30 8 -11 11 -16 21 -11 21 6 0 5 6 -2 14 -9
9 -15 10 -20 3 -4 -6 -21 -2 -47 11 -23 12 -45 21 -49 20 -4 0 -14 2 -22 5
-38 16 -76 30 -85 32 -5 1 -12 3 -15 4 -13 6 -60 12 -110 15 -44 2 -66 -3
-110 -26z m466 -110 c4 -6 3 -8 -4 -4 -5 3 -13 0 -15 -6 -3 -8 -6 -6 -6 5 -1
19 14 23 25 5z m44 -103 c10 -12 10 -15 -4 -15 -9 0 -16 7 -16 15 0 8 2 15 4
15 2 0 9 -7 16 -15z m91 -82 c-12 -20 -14 -14 -5 12 4 9 9 14 11 11 3 -2 0
-13 -6 -23z m-681 -567 c0 -2 -12 -11 -27 -20 l-28 -17 24 20 c23 21 31 25 31
17z m586 -133 c-10 -10 -19 5 -10 18 6 11 8 11 12 0 2 -7 1 -15 -2 -18z m24
-92 c0 -12 -28 -22 -34 -12 -3 5 -3 11 1 15 9 9 33 7 33 -3z m-536 -57 c4 -11
2 -15 -8 -11 -10 4 -13 1 -10 -8 3 -8 11 -13 17 -12 6 1 11 -4 12 -11 0 -7 7
-17 15 -22 13 -9 13 -10 0 -10 -11 -1 -10 -4 5 -16 11 -8 25 -12 31 -10 16 6
26 -21 12 -30 -7 -4 -8 -3 -4 4 4 7 3 12 -3 12 -17 0 -21 -17 -7 -29 9 -8 13
-25 10 -49 -3 -26 -1 -33 6 -22 8 13 11 13 22 1 10 -10 10 -12 1 -7 -7 4 -14
2 -14 -3 -1 -6 -3 -15 -4 -21 -1 -5 -3 -13 -4 -17 0 -3 -10 4 -21 17 -11 13
-20 18 -20 12 0 -7 -3 -12 -8 -12 -4 0 -7 15 -7 33 0 19 -5 31 -11 30 -8 -2
-11 10 -9 32 2 19 -1 35 -6 35 -6 0 -7 5 -4 10 3 6 -1 10 -10 10 -14 0 -14 2
0 24 14 21 14 24 0 29 -19 8 -20 57 -1 57 8 0 17 -7 20 -16z m-87 -56 c-3 -8
-6 -5 -6 6 -1 11 2 17 5 13 3 -3 4 -12 1 -19z m593 -22 c0 -11 -19 -15 -25 -6
-3 5 1 10 9 10 9 0 16 -2 16 -4z m-40 -20 c0 -7 -7 -19 -15 -26 -9 -8 -15 -9
-15 -2 0 6 5 14 10 17 6 4 8 11 5 16 -4 5 -1 9 4 9 6 0 11 -6 11 -14z m11 -29
c-10 -9 -11 -8 -5 6 3 10 9 15 12 12 3 -3 0 -11 -7 -18z m-21 -27 c0 -5 -7
-10 -16 -10 -8 0 -12 5 -9 10 3 6 10 10 16 10 5 0 9 -4 9 -10z m-1000 -26 c0
-8 -5 -12 -10 -9 -6 4 -8 11 -5 16 9 14 15 11 15 -7z m1020 4 c0 -33 -14 -58
-31 -58 -11 0 -19 5 -19 11 0 5 6 7 13 3 8 -5 7 -2 -2 9 -12 15 -12 19 5 32
24 18 34 19 34 3z m-463 -40 c-3 -8 -6 -5 -6 6 -1 11 2 17 5 13 3 -3 4 -12 1
-19z m-66 -51 c-8 -8 -11 -5 -11 10 0 12 -3 30 -6 40 -3 10 2 5 11 -11 12 -20
14 -31 6 -39z m155 -58 c0 -10 -9 -20 -19 -23 -14 -3 -16 -2 -7 9 7 8 9 18 6
23 -3 5 0 9 7 9 7 0 13 -8 13 -18z m-122 -14 c-4 -8 -8 -15 -10 -15 -2 0 -4 7
-4 15 0 8 4 15 10 15 5 0 7 -7 4 -15z m21 -45 c3 -5 1 -10 -4 -10 -6 0 -11 5
-11 10 0 6 2 10 4 10 3 0 8 -4 11 -10z m1145 -122 c0 -19 -16 -5 -17 14 -2 18
0 20 7 8 5 -8 10 -18 10 -22z m-1085 -6 c-3 -3 -11 0 -18 7 -9 10 -8 11 6 5
10 -3 15 -9 12 -12z m20 -52 c-3 -5 -13 -10 -21 -10 -8 0 -14 5 -14 10 0 6 9
10 21 10 11 0 17 -4 14 -10z m85 -215 c14 9 13 -21 -2 -32 -18 -14 -67 -22
-74 -12 -9 15 39 58 53 47 7 -5 17 -7 23 -3z m-870 -44 c0 -17 -18 -21 -24 -6
-3 9 0 15 9 15 8 0 15 -4 15 -9z m800 -25 c0 -3 -4 -8 -10 -11 -5 -3 -10 -1
-10 4 0 6 5 11 10 11 6 0 10 -2 10 -4z"/>
<path d="M1670 1879 c0 -5 5 -7 10 -4 6 3 10 8 10 11 0 2 -4 4 -10 4 -5 0 -10
-5 -10 -11z"/>
<path d="M2390 1109 c-13 -9 -12 -10 2 -5 10 3 20 1 23 -4 8 -13 35 -13 35 0
0 5 -7 7 -15 4 -8 -4 -15 -1 -15 5 0 14 -11 14 -30 0z"/>
<path d="M2137 983 c-9 -15 0 -84 13 -96 7 -7 10 -7 7 -1 -3 5 -7 31 -8 57 -3
48 -4 53 -12 40z"/>
<path d="M416 881 c-4 -6 -1 -20 7 -31 13 -19 15 -19 21 -4 8 21 -18 52 -28
35z"/>
<path d="M455 873 c3 -8 5 -17 5 -19 0 -2 5 -4 10 -4 6 0 10 8 10 18 0 10 -7
19 -15 19 -10 0 -14 -6 -10 -14z"/>
<path d="M337 873 c-10 -9 -9 -53 2 -53 6 0 11 60 5 60 0 0 -4 -3 -7 -7z"/>
<path d="M375 830 c3 -5 8 -10 11 -10 2 0 4 5 4 10 0 6 -5 10 -11 10 -5 0 -7
-4 -4 -10z"/>
<path d="M461 823 c-1 -16 5 -23 17 -23 10 0 13 3 6 8 -6 4 -14 14 -17 22 -4
10 -6 8 -6 -7z"/>
<path d="M2356 825 c4 -8 10 -12 15 -9 11 6 2 24 -11 24 -5 0 -7 -7 -4 -15z"/>
<path d="M342 737 c-24 -26 -28 -37 -11 -37 5 0 7 5 4 10 -3 6 0 10 8 10 8 0
17 9 20 20 6 25 5 25 -21 -3z"/>
<path d="M2360 708 c0 -8 5 -19 12 -26 9 -9 9 -12 0 -12 -7 0 -12 -5 -12 -11
0 -8 5 -7 15 1 9 7 15 22 13 33 -3 23 -28 36 -28 15z"/>
<path d="M302 667 c-12 -13 -19 -27 -15 -30 9 -10 25 -9 19 1 -3 5 10 7 29 6
23 -2 35 2 39 13 7 19 -2 32 -12 18 -4 -6 -18 -11 -32 -13 -19 -1 -21 0 -10 7
8 6 12 12 9 15 -3 3 -15 -5 -27 -17z"/>
<path d="M2135 660 c-3 -5 -1 -10 4 -10 6 0 11 5 11 10 0 6 -2 10 -4 10 -3 0
-8 -4 -11 -10z"/>
<path d="M271 606 c-9 -10 -8 -15 4 -20 10 -4 15 1 15 14 0 24 -4 25 -19 6z"/>
<path d="M350 601 c0 -5 7 -11 15 -15 8 -3 15 -1 15 3 0 5 -7 11 -15 15 -8 3
-15 1 -15 -3z"/>
<path d="M265 550 c5 -15 2 -18 -12 -16 -21 4 -48 -20 -33 -29 6 -3 10 -1 10
5 0 7 6 10 13 7 6 -2 11 -10 10 -16 -2 -6 3 -10 10 -8 6 1 11 -4 9 -11 -1 -8
2 -11 9 -7 7 5 7 11 1 17 -6 6 -7 22 -2 38 6 21 4 30 -7 34 -10 4 -13 1 -8
-14z"/>
<path d="M326 515 c-3 -9 -6 -22 -5 -28 0 -7 5 -1 10 12 5 13 8 26 5 28 -2 2
-6 -3 -10 -12z"/>
<path d="M375 520 c-3 -5 -1 -10 4 -10 6 0 11 5 11 10 0 6 -2 10 -4 10 -3 0
-8 -4 -11 -10z"/>
<path d="M2295 520 c3 -5 8 -10 11 -10 2 0 4 5 4 10 0 6 -5 10 -11 10 -5 0 -7
-4 -4 -10z"/>
<path d="M299 480 c0 -3 -2 -15 -5 -27 -2 -12 2 -25 9 -29 6 -4 9 -4 5 1 -4 4
-3 14 4 22 8 10 8 17 0 25 -7 7 -12 10 -13 8z"/>
<path d="M330 390 c0 -5 5 -10 11 -10 5 0 7 5 4 10 -3 6 -8 10 -11 10 -2 0 -4
-4 -4 -10z"/>
<path d="M368 363 c7 -3 16 -2 19 1 4 3 -2 6 -13 5 -11 0 -14 -3 -6 -6z"/>
<path d="M148 333 c7 -3 16 -2 19 1 4 3 -2 6 -13 5 -11 0 -14 -3 -6 -6z"/>
<path d="M325 320 c-3 -5 -1 -10 4 -10 6 0 11 5 11 10 0 6 -2 10 -4 10 -3 0
-8 -4 -11 -10z"/>
<path d="M260 290 c0 -5 5 -10 11 -10 5 0 7 5 4 10 -3 6 -8 10 -11 10 -2 0 -4
-4 -4 -10z"/>
<path d="M336 43 c6 -4 14 -15 17 -23 5 -11 6 -9 4 4 -1 11 -9 21 -17 23 -10
3 -11 2 -4 -4z"/>
</g>
</svg>
